<svg width="2000" height="2000" viewBox="0 0 2000 2000" fill="none" xmlns="http://www.w3.org/2000/svg">
<path d="M1846.8 1048.8L922.4 1582.4C894 1598.8 859.2 1598.4 831.2 1582L96.4 1146.8C85.2 1140 81.6 1126 88.4 1114.8C90.4 1111.6 93.2 1108.8 96.4 1106.8C260 1012.4 948.4 615.6 1060 552.4C1069.6 546.8 1081.2 546.8 1090.4 552.4L1846.8 996.4C1861.2 1004.8 1866.4 1023.6 1858 1038C1855.2 1042.4 1851.2 1046.4 1846.8 1048.8Z" fill="#FCFADE"/>
<path d="M931.2 1351.6L1119.2 1462C1119.2 1462 1092.4 1482.8 984.8 1546.8L940 1572.4L769.2 1434.8" fill="url(#paint0_linear_1_2)"/>
<path d="M452.8 1072.8L717.2 1232C717.2 1232 638 1277.2 530.4 1341.2L404.8 1236.8L302.8 1144.4" fill="url(#paint1_linear_1_2)"/>
<path d="M1563.2 938.8L1798 1070C1798 1070 1390.8 1310.4 1283.6 1374.4L1041.6 1223.6" fill="url(#paint2_linear_1_2)"/>
<path d="M1296.4 222.8L1217.6 264.8L1432.4 467.2L1622 526.4L1684.8 440.8" fill="#FFE8BC"/>
<path d="M1592.8 483.6L1666 442L1296.4 222.8L1305.2 217.6L1684.8 440.8V1011.2L1602 1058L1570.4 1025.2" fill="#026D49"/>
<path d="M1217.6 264.8L1602 488.8V1058L1211.6 824.8L1217.6 264.8Z" fill="#11B981"/>
<path d="M1587.6 451.6L1564 466.4V587.6L1549.2 568.8L1538.8 580.4V452L1560.8 436L1587.6 451.6Z" fill="#F26250"/>
<path d="M524.4 1038L421.6 1092L418.8 1117.2L527.2 1056" fill="#E27623"/>
<path d="M528.4 996.8L570.8 1149.2L563.2 1153.6C561.2 1152.4 559.2 1151.2 557.6 1150C555.2 1148.4 502.8 989.6 502.8 989.6" fill="#E27623"/>
<path d="M431.2 966.8L402 1056.8L404.8 1236.8L411.2 1241.2L420 1235.6L426.8 1056.4L452.8 966.8" fill="#E27623"/>
<path d="M448.8 847.2L452.8 920L433.6 930L430 851.6" fill="#E27623"/>
<path d="M328.8 900.8L316 999.2L302.8 1144.4L311.2 1149.2L319.6 1144L338 1001.6L350.4 900.8" fill="#E27623"/>
<path d="M341.6 913.2C336.4 914.8 324.8 906.4 321.2 900.8C302.4 871.2 307.6 830.4 341.6 811.6C356.8 803.2 372.4 794.8 387.2 786.4C400.4 778.8 414.8 772.4 427.2 764C428.8 762.8 430.8 762 432.8 761.2C440 759.2 447.6 762 452.4 768" fill="#FDBA45"/>
<path d="M340.4 912C331.2 911.6 326 899.6 323.2 892.4C315.6 872.8 314.4 835.6 336.8 824.4C337.6 824 338.4 823.2 338.4 822.4L381.2 797.6L414.4 778.4C420 775.2 425.6 771.2 431.6 768C437.6 764.8 443.2 760.8 449.6 764.4C456 768 457.6 776.4 458.8 784C461.6 801.2 460.8 818.4 456.4 835.2C452.4 845.6 444.4 854.4 434.4 859.6L403.6 877.2L346.8 910C346 910.4 344.8 911.2 344 911.2C342 912 341.2 912 340.4 912Z" fill="#FDBA45"/>
<path d="M334 990.8L332.4 992C327.6 994.4 323.2 997.6 319.6 1001.6C310.8 1012.4 319.2 1024.8 328 1032.4C351.2 1052.8 386.4 1070 417.6 1062.4C444.8 1055.2 470.8 1043.6 494.4 1028.4C514 1016.4 538.4 1002.4 543.6 978C545.6 967.2 542 956 534.4 948C485.2 890.8 415.6 944.4 366.8 972.4L334 990.8Z" fill="#E27623"/>
<path d="M334 976.8L332.4 978C327.6 980.4 323.2 983.6 319.6 987.6C310.8 998.4 319.2 1010.8 328 1018.4C351.2 1038.8 386.4 1056 417.6 1048.4C444.8 1041.2 470.8 1029.6 494.4 1014.4C514 1002.4 538.4 988.4 543.6 964C545.6 953.2 542 942 534.4 934C485.2 876.8 415.6 930.4 366.8 958.4L334 976.8Z" fill="#FDBA45"/>
<path d="M1548.4 1062.8C1550.4 1062.8 1566.8 1056 1552.8 1045.6C1543.6 1038.4 1534 1031.6 1523.6 1025.6" fill="#E27623"/>
<path d="M1552.4 958.4C1555.6 960.8 1557.6 964.4 1558 968.4C1558.8 975.2 1551.6 978.4 1548.8 980" fill="#FDBA45"/>
<path d="M1587.6 908.8C1589.6 908.8 1606 902 1592 891.6C1582.8 884.4 1573.2 877.6 1562.8 871.6" fill="#9A433A"/>
<path d="M1592 804.4C1595.2 806.8 1597.2 810.4 1597.6 814.4C1598.4 821.2 1591.2 824.4 1588.4 826" fill="#F26250"/>
<path d="M1548.4 974.8C1548.4 974.8 1534.4 1026.4 1548.4 1054L1358.4 1165.6L1170.4 1274.4V1194" fill="#FFE8BC"/>
<path d="M1554.8 966.8C1554.4 970.4 1554 974 1553.6 977.6L1170.8 1194.4V1274.8L1553.2 1051.6V1061.2L1156 1291.2V1181.6L1554.8 966.8Z" fill="#E27623"/>
<path d="M1552.4 968.4L1157.6 1194.4L604 869.2L990.4 647.6C1002.4 640.8 1016.8 640.8 1028.8 648L1552.8 958.4C1555.6 960 1556.4 963.6 1554.8 966.4C1554 967.2 1553.2 967.6 1552.4 968.4Z" fill="#FDBA45"/>
<path d="M1155.6 1290.8C1155.6 1290.8 602 964.8 604 963.2C606 961.6 604 868.8 604 868.8L1157.6 1194L1155.6 1290.8Z" fill="#E27623"/>
<path d="M1587.6 820.8C1587.6 820.8 1573.6 872.4 1587.6 900L1397.6 1011.6L1209.6 1120.4V1040" fill="#FFE8BC"/>
<path d="M1594 812.8C1593.6 816.4 1593.2 820 1592.8 823.6L1210 1040.4V1120.8L1592.4 897.6V907.2L1195.2 1137.2V1027.6L1594 812.8Z" fill="#9A433A"/>
<path d="M1592 814.4L1197.2 1040.4L643.6 715.2L1029.6 493.6C1041.6 486.8 1056 486.8 1068 494L1592 804.4C1594.8 806 1595.6 809.6 1594 812.4C1593.6 813.2 1592.8 813.6 1592 814.4Z" fill="#F26250"/>
<path d="M1195.2 1136.8C1195.2 1136.8 642 810.8 643.6 809.2C645.2 807.6 643.6 714.8 643.6 714.8L1197.2 1040L1195.2 1136.8Z" fill="#9A433A"/>
<path d="M1262.4 1049.6L1266.4 1122.4L1247.2 1106L1232 1143.6L1226 1068.4L1262.4 1049.6Z" fill="#F26250"/>
<path d="M900.4 1379.6C903.6 1379.6 907.2 1379.2 910.4 1378.4C934.4 1373.2 953.2 1353.6 957.6 1329.2C958.4 1321.2 958.4 1298.4 958 1280.8C958 1272.4 950.8 1265.2 942 1265.6C939.6 1265.6 937.2 1266.4 935.2 1267.2L856.8 1311.2L858 1316.4C858 1316.4 859.2 1320.8 861.6 1336.4C863.2 1346.4 868 1364 881.6 1373.2C887.2 1377.2 893.6 1379.2 900.4 1379.6ZM942.4 1279.6C942.8 1279.6 943.2 1279.6 943.2 1280C943.6 1280.4 944 1280.8 944 1281.6C944.4 1306 944.4 1322.4 943.6 1328C939.6 1346.4 925.6 1360.8 907.2 1365.2C901.2 1366.8 894.4 1366 889.2 1362.8C879.6 1356.4 876 1341.2 875.2 1335.2C874 1327.6 873.2 1322.4 872.4 1319.2L941.6 1280.4C942 1279.6 942 1279.6 942.4 1279.6Z" fill="#E27623"/>
<path d="M788.4 1440.8C791.6 1440.8 795.2 1440.4 798.4 1439.6C822.4 1434 841.2 1414.8 845.6 1390.4C846.4 1384 846.4 1369.2 846 1345.2C846 1338.8 842.8 1333.2 837.6 1329.6C833.6 1327.2 828.8 1326.8 824.8 1329.2L744.8 1372.8L746 1378C746 1378 747.2 1382.4 749.6 1398C751.2 1408 756 1425.6 769.6 1434.8C775.2 1438.4 781.6 1440.4 788.4 1440.8ZM830.4 1341.6C831.6 1342.4 832 1344 832 1345.2C832.4 1374 832 1384.8 831.6 1388.8C827.6 1407.2 813.6 1421.6 795.2 1426C789.2 1428 782.4 1426.8 777.2 1423.6C767.6 1417.2 764 1402 763.2 1396C762 1388.4 761.2 1383.2 760.4 1380L830.4 1341.6Z" fill="#E27623"/>
<path d="M748.8 1382L755.6 1370L655.2 1312C646.8 1307.2 637.2 1306 628 1308.4C620.8 1311.2 614.8 1316.8 612.4 1324L625.2 1329.6C626.4 1326 629.2 1323.2 632.8 1321.6C638.4 1320.4 644 1321.2 648.8 1324L748.8 1382Z" fill="#E27623"/>
<path d="M940.4 1278.8L947.2 1266.8L846.8 1208.4C838.4 1203.6 828.8 1202.4 819.6 1204.8C812.4 1207.6 806.4 1213.2 804 1220.4L816.8 1226C818 1222.4 820.8 1219.6 824.4 1218C830 1216.8 835.6 1217.6 840.4 1220.4L940.4 1278.8Z" fill="#E27623"/>
<path d="M860.884 1309.02L867.575 1321.32L830.682 1341.39L823.992 1329.09L860.884 1309.02Z" fill="#E27623"/>
<path d="M924 1008.8L905.2 999.6C905.2 999.6 903.6 983.2 910.4 979.6C917.2 976 924 1008.8 924 1008.8Z" fill="#3E8858"/>
<path d="M878 961.6C878 961.6 875.6 1002.4 872.4 1006.4C869.2 1010.4 833.2 1029.6 830.4 1036.4C827.6 1043.2 870.4 1036 885.2 1032.4C900 1028.8 912.8 1021.6 913.2 1016.4C913.6 1011.2 908 983.6 913.2 984.4C918.4 985.2 924 1008.8 924 1008.8L936.4 1001.6L908.8 906" fill="#3E8858"/>
<path d="M838.4 968L819.6 958.8C819.6 958.8 818 942.4 824.8 938.8C831.6 935.2 838.4 968 838.4 968Z" fill="#3E8858"/>
<path d="M792.4 920.8C792.4 920.8 790 961.6 786.8 965.6C783.6 969.6 747.6 988.8 744.8 995.6C742 1002.4 784.8 995.2 799.6 991.6C814.4 988 827.2 980.8 827.6 975.6C828 970.4 822.4 942.8 827.6 943.6C832.8 944.4 838.4 968 838.4 968L850.8 960.4L823.2 864.8" fill="#3E8858"/>
<path d="M932.8 615.2C939.2 621.6 954.8 710.4 944.8 752.8C934.8 795.2 830.8 813.2 830.8 813.2L855.2 921.6C855.2 921.6 815.6 951.6 777.6 939.2C764 934.8 732.8 778.8 744.8 757.2C756.8 735.6 895.6 660.4 895.6 660.4" fill="#FFE8BC"/>
<path d="M1014.4 647.6C1021.2 654 1040 704 1014.4 765.2C997.6 805.6 905.2 834 905.2 834L936.8 954.4C936.8 954.4 895.6 988.8 859.2 972C822.8 955.2 812.8 807.6 824.8 786C836.8 764.4 956.8 688 956.8 688" fill="#FFE8BC"/>
<path d="M981.6 528.4C981.6 528.4 1050 556.8 1030.8 654C1017.2 722.4 949.6 730 949.6 730C949.6 730 905.2 702 910 692.8L970.4 661.2L902 626.8L852.8 678.4L817.6 650.8C817.6 650.8 868.4 571.2 890.4 538C912.4 504.8 981.6 528.4 981.6 528.4Z" fill="#E27623"/>
<path d="M892.8 693.2L904.8 683.6C904.8 683.6 878 659.2 841.2 662.4C831.6 647.6 817.2 636.4 800 630.8L784.8 641.6" fill="#FFE8BC"/>
<path d="M892.8 693.2L902.8 759.2L892.8 765.2C892.8 765.2 790.4 708.8 791.2 707.6C792 706.4 785.2 641.6 785.2 641.6" fill="#11B981"/>
<path d="M792.8 636.4L893.2 693.2L883.6 698.4L785.2 641.6L792.8 636.4Z" fill="#026D49"/>
<path d="M880 702.4C879.2 699.6 881.2 696.4 884 695.6C884.8 695.2 886 695.2 886.8 695.6C894.8 698.4 902.8 699.6 911.2 699.6C912 699.6 912.8 699.6 913.6 700C921.6 708 930 714.8 939.6 720.8L936.8 722C933.2 729.2 928.8 736.4 924 742.8C921.6 746 918.4 747.6 914.4 748C913.2 748.8 911.6 749.6 910.4 750.4C906.4 752.8 901.2 752 898 749.2C896.8 750 895.2 750.4 893.6 750C891.6 751.2 889.2 750.8 887.6 749.6C882.4 746.4 880.8 740 883.6 734.8C880 730.8 880 724.4 883.2 720.4C885.6 717.2 888.4 714.4 891.6 712C886 711.2 881.6 707.6 880 702.4Z" fill="#FDBA45"/>
<path d="M781.6 679.2C781.2 678.4 780.4 677.2 780 676.4C778.4 674 779.2 671.2 781.2 669.6C781.6 669.2 782 669.2 782.4 669.2L783.2 668.4C782 666 783.2 662.8 785.2 661.6C786.8 660.8 788.8 660.8 790.4 661.6C790.8 661.6 791.2 662 791.6 662C795.6 664.4 798.4 668 800 672.4C800.8 674.8 799.6 677.2 797.6 678.4C796.8 678.8 796.4 678.8 795.6 678.8C797.6 681.2 799.2 684 800.4 686.8C801.2 689.6 799.6 692.8 796.4 693.6C795.6 693.6 794.8 694 794.4 693.6L795.2 694.8C798.4 698.8 793.2 704 789.2 702.8C786.4 702 783.6 699.6 782.4 696.8C780.8 693.6 778.8 690.4 777.2 687.2C776 684.4 776.8 681.2 779.6 679.6C780.4 679.2 780.8 679.2 781.6 679.2Z" fill="#FDBA45"/>
<path d="M900 601.6C900 601.6 898.4 663.2 902 670C905.6 676.8 970.8 704.4 970.8 704.4L1010.8 653.6L900 601.6Z" fill="#E27623"/>
<path d="M933.2 496.4C933.2 496.4 921.6 521.6 926 530.4C930.4 539.2 954.4 533.2 954.4 533.2" fill="#3E8858"/>
<path d="M931.2 483.6C931.2 483.6 930.4 534.4 951.2 539.6C972 544.8 983.2 519.6 983.2 519.6C983.2 519.6 987.6 485.2 980.8 478C974 471.2 942 469.2 931.2 483.6Z" fill="#FDBA45"/>
<path d="M923.2 478C923.2 478 937.2 498 945.6 503.2C954 508.4 963.2 505.2 966 512.4C968.8 519.2 958.4 560 968 567.6C977.6 575.2 996 553.2 1004.4 564C1012.8 574.8 1008 594.8 1021.2 599.2C1034.4 603.6 1049.2 583.6 1036.8 567.6C1024.4 551.6 1023.2 544 1030.4 538.8C1040.8 531.2 1030 502.4 1018 496.8C1006 491.2 1002.4 463.6 980.4 456.8C958 450 928 462 923.2 478Z" fill="#3E8858"/>
<path d="M905.2 582C905.2 610.4 905.6 638.8 906.8 667.6C906.8 668.8 905.6 670 904.4 670C903.2 670 902 668.8 902 667.6C900.8 639.2 900.4 610.8 900.4 582C900.4 580.8 901.2 579.2 902.4 579.2C903.6 579.2 905.2 580 905.2 581.2C905.2 581.6 905.2 582 905.2 582Z" fill="#9A433A"/>
<path d="M911.6 690.4C944.4 675.6 968.4 646 976 610.8C976.8 607.6 981.6 608.8 981.2 612C973.2 648.4 948.4 679.2 914.4 694.8C910.8 696 908.4 692 911.6 690.4Z" fill="#9A433A"/>
<defs>
<linearGradient id="paint0_linear_1_2" x1="993.237" y1="1492.84" x2="796.517" y2="1315.28" gradientUnits="userSpaceOnUse">
<stop stop-color="#FAF9EA"/>
<stop offset="1" stop-color="#ECECB9"/>
</linearGradient>
<linearGradient id="paint1_linear_1_2" x1="594.949" y1="1302.83" x2="511.789" y2="1190.55" gradientUnits="userSpaceOnUse">
<stop stop-color="#FAF9EA"/>
<stop offset="1" stop-color="#ECECB9"/>
</linearGradient>
<linearGradient id="paint2_linear_1_2" x1="1507.26" y1="1264.79" x2="1421.5" y2="1149.07" gradientUnits="userSpaceOnUse">
<stop stop-color="#FAF9EA"/>
<stop offset="1" stop-color="#ECECB9"/>
</linearGradient>
</defs>
</svg>
